<svg version="1.1" xmlns="http://www.w3.org/2000/svg" viewBox="0 0 279.06471966382014 246.20798523911844" width="100" height="100">   <!-- svg-source:excalidraw -->      <defs>     <style>       @font-face {         font-family: "Virgil";         src: url("https://excalidraw.com/Virgil.woff2");       }       @font-face {         font-family: "Cascadia";         src: url("https://excalidraw.com/Cascadia.woff2");       }     </style>   </defs>   <rect x="0" y="0" width="279.06471966382014" height="246.20798523911844" fill="transparent"></rect><g stroke-linecap="round"><g transform="translate(67.40766578546754 103.1808066241581) rotate(0 62.580316510581724 15.999886335707174)" fill-rule="evenodd"><path d="M0 0 L-1.21 32.47 L125.49 32.52 L126.37 -0.52 L0 0" stroke="none" stroke-width="0" fill="#2e1801" fill-rule="evenodd"></path><path d="M0 0 C-0.4 10.72, -0.8 21.43, -1.21 32.47 M0 0 C-0.3 8.18, -0.61 16.36, -1.21 32.47 M-1.21 32.47 C40.5 32.49, 82.2 32.5, 125.49 32.52 M-1.21 32.47 C49.29 32.49, 99.78 32.51, 125.49 32.52 M125.49 32.52 C125.75 22.71, 126.01 12.91, 126.37 -0.52 M125.49 32.52 C125.82 19.84, 126.16 7.16, 126.37 -0.52 M126.37 -0.52 C92.79 -0.38, 59.21 -0.24, 0 0 M126.37 -0.52 C86.91 -0.36, 47.45 -0.19, 0 0 M0 0 C0 0, 0 0, 0 0 M0 0 C0 0, 0 0, 0 0" stroke="black" stroke-width="4" fill="none"></path></g></g><g stroke-linecap="round"><g transform="translate(193.22982634988875 132.91207354781386) rotate(0 21.108432589619042 -17.765077084387883)" fill-rule="evenodd"><path d="M0 0 L42.81 -34.1 L14.59 -35.53 L-0.6 -21.19 L0 0" stroke="none" stroke-width="0" fill="#2e1801" fill-rule="evenodd"></path><path d="M0 0 C13.1 -10.43, 26.2 -20.87, 42.81 -34.1 M0 0 C14.81 -11.8, 29.63 -23.6, 42.81 -34.1 M42.81 -34.1 C35.26 -34.48, 27.71 -34.87, 14.59 -35.53 M42.81 -34.1 C32 -34.65, 21.18 -35.2, 14.59 -35.53 M14.59 -35.53 C9.73 -30.94, 4.87 -26.35, -0.6 -21.19 M14.59 -35.53 C9.15 -30.4, 3.72 -25.27, -0.6 -21.19 M-0.6 -21.19 C-0.39 -13.85, -0.18 -6.51, 0 0 M-0.6 -21.19 C-0.41 -14.39, -0.21 -7.58, 0 0 M0 0 C0 0, 0 0, 0 0 M0 0 C0 0, 0 0, 0 0" stroke="black" stroke-width="4" fill="none"></path></g></g><g stroke-linecap="round"><g transform="translate(43.30400974742406 104.03634328451437) rotate(0 12.040397180609034 11.873740426852237)" fill-rule="evenodd"><path d="M0 0 L23.65 24.62 L24.08 -0.87 L0 0" stroke="none" stroke-width="0" fill="#2e1801" fill-rule="evenodd"></path><path d="M0 0 C6.5 6.76, 13 13.53, 23.65 24.62 M0 0 C7.03 7.32, 14.06 14.64, 23.65 24.62 M23.65 24.62 C23.77 17.7, 23.89 10.77, 24.08 -0.87 M23.65 24.62 C23.81 15.4, 23.96 6.17, 24.08 -0.87 M24.08 -0.87 C18.24 -0.66, 12.39 -0.45, 0 0 M24.08 -0.87 C16.17 -0.59, 8.27 -0.3, 0 0 M0 0 C0 0, 0 0, 0 0 M0 0 C0 0, 0 0, 0 0" stroke="black" stroke-width="4" fill="none"></path></g></g><g stroke-linecap="round"><g transform="translate(66.35338393605707 135.8884560097357) rotate(0 63.3257473757958 5.344374884893625)" fill-rule="evenodd"><path d="M0 0 L4.33 10.69 L44.63 10.57 L44.66 3.19 L81.5 3.14 L82.3 7.81 L116.45 7.86 L126.65 0.83 L0 0" stroke="none" stroke-width="0" fill="#2e1801" fill-rule="evenodd"></path><path d="M0 0 C1.42 3.5, 2.83 7, 4.33 10.69 M0 0 C1.36 3.36, 2.72 6.73, 4.33 10.69 M4.33 10.69 C15.2 10.66, 26.06 10.62, 44.63 10.57 M4.33 10.69 C12.5 10.66, 20.67 10.64, 44.63 10.57 M44.63 10.57 C44.64 8.27, 44.65 5.96, 44.66 3.19 M44.63 10.57 C44.64 8.62, 44.65 6.68, 44.66 3.19 M44.66 3.19 C53.05 3.18, 61.44 3.17, 81.5 3.14 M44.66 3.19 C55.23 3.18, 65.79 3.16, 81.5 3.14 M81.5 3.14 C81.8 4.92, 82.11 6.71, 82.3 7.81 M81.5 3.14 C81.74 4.53, 81.98 5.92, 82.3 7.81 M82.3 7.81 C94.33 7.83, 106.35 7.85, 116.45 7.86 M82.3 7.81 C95.39 7.83, 108.47 7.85, 116.45 7.86 M116.45 7.86 C119.03 6.08, 121.62 4.3, 126.65 0.83 M116.45 7.86 C118.72 6.29, 121 4.73, 126.65 0.83 M126.65 0.83 C81.49 0.53, 36.33 0.24, 0 0 M126.65 0.83 C86.82 0.57, 47 0.31, 0 0 M0 0 C0 0, 0 0, 0 0 M0 0 C0 0, 0 0, 0 0" stroke="black" stroke-width="4" fill="none"></path></g></g><g stroke-linecap="round"><g transform="translate(67.11831792955127 138.3454845753388) rotate(0 1.0132815085316906 48.336458641940794)" fill-rule="evenodd"><path d="M0 0 L-9.6 -0.42 L-20.04 34.43 L-14.13 78.28 L14.55 78.55 L18.32 93.16 L8.08 97.09 L7.81 81.17 L-16.08 81.4 L-16.33 96.03 L7.97 96.52 L7.38 81.02 L14.45 78.14 L19.1 92.48 L22.07 78.75 L10.3 60.58 L10.27 41.14 L9.23 33.92 L10.41 8.95 L2.84 7.92 L0 0" stroke="none" stroke-width="0" fill="#2e1801" fill-rule="evenodd"></path><path d="M0 0 C-2.13 -0.09, -4.27 -0.19, -9.6 -0.42 M0 0 C-3.32 -0.14, -6.64 -0.29, -9.6 -0.42 M-9.6 -0.42 C-11.75 6.77, -13.9 13.95, -20.04 34.43 M-9.6 -0.42 C-12.89 10.56, -16.18 21.53, -20.04 34.43 M-20.04 34.43 C-18.31 47.28, -16.58 60.14, -14.13 78.28 M-20.04 34.43 C-18.78 43.74, -17.53 53.06, -14.13 78.28 M-14.13 78.28 C-5.25 78.36, 3.62 78.45, 14.55 78.55 M-14.13 78.28 C-5.82 78.36, 2.5 78.44, 14.55 78.55 M14.55 78.55 C16.04 84.32, 17.53 90.08, 18.32 93.16 M14.55 78.55 C15.62 82.72, 16.7 86.88, 18.32 93.16 M18.32 93.16 C14.96 94.45, 11.59 95.75, 8.08 97.09 M18.32 93.16 C15.84 94.11, 13.36 95.07, 8.08 97.09 M8.08 97.09 C7.98 91.33, 7.88 85.57, 7.81 81.17 M8.08 97.09 C8.02 93.33, 7.95 89.58, 7.81 81.17 M7.81 81.17 C-0.33 81.25, -8.47 81.33, -16.08 81.4 M7.81 81.17 C-1.52 81.26, -10.86 81.35, -16.08 81.4 M-16.08 81.4 C-16.17 86.34, -16.25 91.28, -16.33 96.03 M-16.08 81.4 C-16.13 84.39, -16.18 87.38, -16.33 96.03 M-16.33 96.03 C-7.12 96.22, 2.1 96.4, 7.97 96.52 M-16.33 96.03 C-7.34 96.21, 1.66 96.39, 7.97 96.52 M7.97 96.52 C7.81 92.29, 7.65 88.06, 7.38 81.02 M7.97 96.52 C7.8 91.91, 7.62 87.31, 7.38 81.02 M7.38 81.02 C9.76 80.05, 12.14 79.08, 14.45 78.14 M7.38 81.02 C9.73 80.06, 12.09 79.1, 14.45 78.14 M14.45 78.14 C15.5 81.39, 16.56 84.64, 19.1 92.48 M14.45 78.14 C15.79 82.27, 17.13 86.4, 19.1 92.48 M19.1 92.48 C19.88 88.86, 20.66 85.24, 22.07 78.75 M19.1 92.48 C19.85 89.03, 20.59 85.58, 22.07 78.75 M22.07 78.75 C18.95 73.94, 15.84 69.14, 10.3 60.58 M22.07 78.75 C18.32 72.97, 14.58 67.19, 10.3 60.58 M10.3 60.58 C10.29 55.38, 10.28 50.19, 10.27 41.14 M10.3 60.58 C10.29 56.5, 10.29 52.43, 10.27 41.14 M10.27 41.14 C9.89 38.53, 9.52 35.93, 9.23 33.92 M10.27 41.14 C9.86 38.29, 9.45 35.44, 9.23 33.92 M9.23 33.92 C9.48 28.59, 9.73 23.26, 10.41 8.95 M9.23 33.92 C9.6 26.1, 9.97 18.28, 10.41 8.95 M10.41 8.95 C8.15 8.64, 5.89 8.33, 2.84 7.92 M10.41 8.95 C8.18 8.64, 5.95 8.34, 2.84 7.92 M2.84 7.92 C2.2 6.13, 1.56 4.34, 0 0 M2.84 7.92 C1.75 4.88, 0.66 1.84, 0 0 M0 0 C0 0, 0 0, 0 0 M0 0 C0 0, 0 0, 0 0" stroke="black" stroke-width="4" fill="none"></path></g></g><g stroke-linecap="round"><g transform="translate(52.023473242681575 219.73837022220584) rotate(0 1.0601411705792998 -1.4277417439305395)"><path d="M0 0 C0.44 -0.59, 0.87 -1.18, 2.12 -2.86 M0 0 C0.81 -1.1, 1.63 -2.19, 2.12 -2.86" stroke="black" stroke-width="4" fill="none"></path></g></g><g stroke-linecap="round"><g transform="translate(46.86466783578544 172.86465027587883) rotate(0 11.168257127902507 -0.0852167731709983)"><path d="M0 0 C4.63 -0.04, 9.26 -0.07, 22.34 -0.17 M0 0 C8.87 -0.07, 17.75 -0.14, 22.34 -0.17" stroke="black" stroke-width="4" fill="none"></path></g></g><g stroke-linecap="round"><g transform="translate(110.93611848662476 140.34512284780783) rotate(0 18.856336701815053 20.76335541776666)" fill-rule="evenodd"><path d="M0 0 L0.21 41.5 L36.49 41.85 L37.71 -0.32 L0 0" stroke="none" stroke-width="0" fill="#2e1801" fill-rule="evenodd"></path><path d="M0 0 C0.06 11.47, 0.12 22.93, 0.21 41.5 M0 0 C0.04 8.44, 0.09 16.88, 0.21 41.5 M0.21 41.5 C7.61 41.57, 15.01 41.64, 36.49 41.85 M0.21 41.5 C8.46 41.58, 16.71 41.66, 36.49 41.85 M36.49 41.85 C36.82 30.51, 37.15 19.16, 37.71 -0.32 M36.49 41.85 C36.85 29.54, 37.2 17.22, 37.71 -0.32 M37.71 -0.32 C29.54 -0.25, 21.37 -0.18, 0 0 M37.71 -0.32 C29.25 -0.25, 20.78 -0.18, 0 0 M0 0 C0 0, 0 0, 0 0 M0 0 C0 0, 0 0, 0 0" stroke="black" stroke-width="4" fill="none"></path></g></g><g stroke-linecap="round"><g transform="translate(111.31422988212944 182.77672070830863) rotate(0 19.18073770916999 2.1770877273959854)" fill-rule="evenodd"><path d="M0 0 L2.56 5.44 L38.36 4.99 L36.55 -1.09 L0 0" stroke="none" stroke-width="0" fill="#2e1801" fill-rule="evenodd"></path><path d="M0 0 C0.76 1.63, 1.53 3.25, 2.56 5.44 M0 0 C1 2.13, 2.01 4.27, 2.56 5.44 M2.56 5.44 C10.83 5.34, 19.1 5.23, 38.36 4.99 M2.56 5.44 C13.55 5.3, 24.53 5.16, 38.36 4.99 M38.36 4.99 C37.94 3.58, 37.52 2.18, 36.55 -1.09 M38.36 4.99 C37.72 2.84, 37.08 0.69, 36.55 -1.09 M36.55 -1.09 C24.44 -0.73, 12.34 -0.37, 0 0 M36.55 -1.09 C24.94 -0.74, 13.34 -0.4, 0 0 M0 0 C0 0, 0 0, 0 0 M0 0 C0 0, 0 0, 0 0" stroke="black" stroke-width="4" fill="none"></path></g></g><g stroke-linecap="round"><g transform="translate(77.62538435657916 198.44217523911936) rotate(0 54.941649678715294 12.26054802580137)" fill-rule="evenodd"><path d="M0 0 L106.95 0.56 L109.88 24.52 L13.93 23.82 L0 0" stroke="none" stroke-width="0" fill="#2e1801" fill-rule="evenodd"></path><path d="M0 0 C35.69 0.19, 71.38 0.37, 106.95 0.56 M0 0 C38.91 0.2, 77.83 0.41, 106.95 0.56 M106.95 0.56 C107.6 5.84, 108.24 11.13, 109.88 24.52 M106.95 0.56 C107.84 7.81, 108.72 15.06, 109.88 24.52 M109.88 24.52 C75.87 24.27, 41.85 24.02, 13.93 23.82 M109.88 24.52 C77.9 24.29, 45.91 24.05, 13.93 23.82 M13.93 23.82 C8.88 15.19, 3.84 6.56, 0 0 M13.93 23.82 C8.61 14.72, 3.29 5.62, 0 0 M0 0 C0 0, 0 0, 0 0 M0 0 C0 0, 0 0, 0 0" stroke="black" stroke-width="4" fill="none"></path></g></g><g stroke-linecap="round"><g transform="translate(77.81146676965363 181.46266798118666) rotate(0 53.46583983247274 8.212507873363109)" fill-rule="evenodd"><path d="M0 0 L33.11 -0.73 L37.1 7.46 L72.3 7.26 L69.86 -1.19 L107.23 -1.46 L106.66 17.89 L-0.3 16.81 L0 0" stroke="none" stroke-width="0" fill="#2e1801" fill-rule="evenodd"></path><path d="M0 0 C11 -0.24, 22 -0.49, 33.11 -0.73 M0 0 C10.81 -0.24, 21.62 -0.48, 33.11 -0.73 M33.11 -0.73 C34.6 2.33, 36.1 5.4, 37.1 7.46 M33.11 -0.73 C34.31 1.72, 35.5 4.17, 37.1 7.46 M37.1 7.46 C49 7.39, 60.91 7.32, 72.3 7.26 M37.1 7.46 C46.33 7.41, 55.55 7.36, 72.3 7.26 M72.3 7.26 C71.35 3.97, 70.4 0.68, 69.86 -1.19 M72.3 7.26 C71.41 4.18, 70.52 1.11, 69.86 -1.19 M69.86 -1.19 C79.56 -1.26, 89.27 -1.33, 107.23 -1.46 M69.86 -1.19 C82.43 -1.28, 95 -1.37, 107.23 -1.46 M107.23 -1.46 C107.08 3.83, 106.92 9.13, 106.66 17.89 M107.23 -1.46 C107.11 2.7, 106.99 6.86, 106.66 17.89 M106.66 17.89 C76.75 17.59, 46.85 17.29, -0.3 16.81 M106.66 17.89 C68 17.5, 29.34 17.11, -0.3 16.81 M-0.3 16.81 C-0.22 12.18, -0.14 7.55, 0 0 M-0.3 16.81 C-0.19 10.33, -0.07 3.85, 0 0 M0 0 C0 0, 0 0, 0 0 M0 0 C0 0, 0 0, 0 0" stroke="black" stroke-width="4" fill="none"></path></g></g><g stroke-linecap="round"><g transform="translate(192.365674644534 136.87592558197412) rotate(0 10.448626603598314 49.666029828572164)" fill-rule="evenodd"><path d="M0 0 L26.9 1.51 L28.58 36.49 L29.11 93.32 L24.65 93.02 L24.71 79.44 L-1.92 79.86 L-1.79 99.33 L24.75 98.55 L24.24 80 L-1.89 79.99 L-1.46 92.5 L-5.03 91.47 L-5.62 86.1 L-8.16 61.75 L-7.59 42.2 L-8.21 6.53 L0 0" stroke="none" stroke-width="0" fill="#2e1801" fill-rule="evenodd"></path><path d="M0 0 C6.77 0.38, 13.55 0.76, 26.9 1.51 M0 0 C8.85 0.5, 17.71 1, 26.9 1.51 M26.9 1.51 C27.57 15.45, 28.23 29.39, 28.58 36.49 M26.9 1.51 C27.39 11.9, 27.89 22.28, 28.58 36.49 M28.58 36.49 C28.78 58.3, 28.98 80.11, 29.11 93.32 M28.58 36.49 C28.72 51.59, 28.86 66.69, 29.11 93.32 M29.11 93.32 C27.71 93.22, 26.32 93.13, 24.65 93.02 M29.11 93.32 C27.71 93.22, 26.31 93.13, 24.65 93.02 M24.65 93.02 C24.67 88.36, 24.69 83.7, 24.71 79.44 M24.65 93.02 C24.66 89.11, 24.68 85.21, 24.71 79.44 M24.71 79.44 C16.41 79.57, 8.11 79.7, -1.92 79.86 M24.71 79.44 C18.32 79.54, 11.94 79.64, -1.92 79.86 M-1.92 79.86 C-1.89 84.74, -1.86 89.63, -1.79 99.33 M-1.92 79.86 C-1.88 86.63, -1.83 93.41, -1.79 99.33 M-1.79 99.33 C3.88 99.16, 9.55 99, 24.75 98.55 M-1.79 99.33 C7.42 99.06, 16.64 98.79, 24.75 98.55 M24.75 98.55 C24.55 91.23, 24.35 83.91, 24.24 80 M24.75 98.55 C24.62 93.77, 24.49 88.99, 24.24 80 M24.24 80 C15.04 80, 5.85 79.99, -1.89 79.99 M24.24 80 C18.69 80, 13.14 80, -1.89 79.99 M-1.89 79.99 C-1.75 84.11, -1.61 88.23, -1.46 92.5 M-1.89 79.99 C-1.72 84.82, -1.56 89.64, -1.46 92.5 M-1.46 92.5 C-2.45 92.21, -3.45 91.92, -5.03 91.47 M-1.46 92.5 C-2.25 92.27, -3.04 92.04, -5.03 91.47 M-5.03 91.47 C-5.26 89.44, -5.48 87.41, -5.62 86.1 M-5.03 91.47 C-5.24 89.54, -5.45 87.62, -5.62 86.1 M-5.62 86.1 C-6.28 79.77, -6.94 73.44, -8.16 61.75 M-5.62 86.1 C-6.29 79.65, -6.97 73.19, -8.16 61.75 M-8.16 61.75 C-7.97 55.32, -7.79 48.9, -7.59 42.2 M-8.16 61.75 C-7.96 54.7, -7.75 47.66, -7.59 42.2 M-7.59 42.2 C-7.83 28.53, -8.06 14.86, -8.21 6.53 M-7.59 42.2 C-7.74 33.42, -7.89 24.64, -8.21 6.53 M-8.21 6.53 C-5.42 4.32, -2.64 2.1, 0 0 M-8.21 6.53 C-6.29 5.01, -4.37 3.48, 0 0 M0 0 C0 0, 0 0, 0 0 M0 0 C0 0, 0 0, 0 0" stroke="black" stroke-width="4" fill="none"></path></g></g><g stroke-linecap="round"><g transform="translate(219.49072473272463 179.90624908364418) rotate(0 -12.796912933043131 0.08524285461555792)"><path d="M0 0 C-8.86 0.06, -17.71 0.12, -25.59 0.17 M0 0 C-6.85 0.05, -13.69 0.09, -25.59 0.17" stroke="black" stroke-width="4" fill="none"></path></g></g><g stroke-linecap="round"><g transform="translate(80.57375256230989 104.01833916341604) rotate(0 53.15612267840061 -3.3581163934804863)" fill-rule="evenodd"><path d="M0 0 L0.24 -6.13 L106.31 -6.72 L105.8 -0.09 L0 0" stroke="none" stroke-width="0" fill="#2e1801" fill-rule="evenodd"></path><path d="M0 0 C0.07 -1.82, 0.14 -3.65, 0.24 -6.13 M0 0 C0.06 -1.67, 0.13 -3.33, 0.24 -6.13 M0.24 -6.13 C38.62 -6.34, 77 -6.55, 106.31 -6.72 M0.24 -6.13 C25.98 -6.27, 51.72 -6.42, 106.31 -6.72 M106.31 -6.72 C106.15 -4.54, 105.98 -2.37, 105.8 -0.09 M106.31 -6.72 C106.14 -4.46, 105.97 -2.2, 105.8 -0.09 M105.8 -0.09 C76.53 -0.07, 47.26 -0.04, 0 0 M105.8 -0.09 C69 -0.06, 32.19 -0.03, 0 0 M0 0 C0 0, 0 0, 0 0 M0 0 C0 0, 0 0, 0 0" stroke="black" stroke-width="4" fill="none"></path></g></g><g stroke-linecap="round"><g transform="translate(77.39814542399836 147.65682109536863) rotate(0 16.097302395912266 16.56484706479216)" fill-rule="evenodd"><path d="M0 0 L33.77 -0.46 L33.32 32.89 L0.06 33.59 L-1.57 23.73 L0 0" stroke="none" stroke-width="0" fill="#129041" fill-rule="evenodd"></path><path d="M0 0 C10.63 -0.14, 21.25 -0.29, 33.77 -0.46 M0 0 C9.11 -0.12, 18.21 -0.25, 33.77 -0.46 M33.77 -0.46 C33.68 6.3, 33.59 13.06, 33.32 32.89 M33.77 -0.46 C33.63 9.95, 33.49 20.35, 33.32 32.89 M33.32 32.89 C24.56 33.07, 15.8 33.26, 0.06 33.59 M33.32 32.89 C25.75 33.05, 18.17 33.21, 0.06 33.59 M0.06 33.59 C-0.41 30.76, -0.88 27.94, -1.57 23.73 M0.06 33.59 C-0.56 29.83, -1.19 26.07, -1.57 23.73 M-1.57 23.73 C-1.11 16.67, -0.64 9.62, 0 0 M-1.57 23.73 C-1.02 15.37, -0.47 7.02, 0 0 M0 0 C0 0, 0 0, 0 0 M0 0 C0 0, 0 0, 0 0" stroke="black" stroke-width="4" fill="none"></path></g></g><g stroke-linecap="round"><g transform="translate(148.8605210571368 144.54098393416007) rotate(0 17.197078668396898 18.07038541091822)" fill-rule="evenodd"><path d="M0 0 L34.32 0.48 L35.79 36.14 L-1.4 35.8 L0 0" stroke="none" stroke-width="0" fill="#129041" fill-rule="evenodd"></path><path d="M0 0 C11.87 0.17, 23.73 0.33, 34.32 0.48 M0 0 C7.07 0.1, 14.15 0.2, 34.32 0.48 M34.32 0.48 C34.78 11.71, 35.25 22.95, 35.79 36.14 M34.32 0.48 C34.75 10.93, 35.18 21.39, 35.79 36.14 M35.79 36.14 C27.89 36.07, 19.99 35.99, -1.4 35.8 M35.79 36.14 C24.28 36.03, 12.77 35.93, -1.4 35.8 M-1.4 35.8 C-0.99 25.42, -0.59 15.03, 0 0 M-1.4 35.8 C-0.84 21.67, -0.29 7.54, 0 0 M0 0 C0 0, 0 0, 0 0 M0 0 C0 0, 0 0, 0 0" stroke="black" stroke-width="4" fill="none"></path></g></g><g stroke-linecap="round"><g transform="translate(43.41400795666232 103.13666462410106) rotate(0 31.80104448732709 4.438801048553046)" fill-rule="evenodd"><path d="M0 0 L36.59 -1.93 L35.83 -6.87 L96.19 -6.3 L85.67 -15.19 L-32.59 -13.43 L-13.71 23.9 L21.02 24.07 L0 0" stroke="none" stroke-width="0" fill="#0b2605" fill-rule="evenodd"></path><path d="M0 0 C14.04 -0.74, 28.07 -1.48, 36.59 -1.93 M0 0 C14.27 -0.75, 28.54 -1.5, 36.59 -1.93 M36.59 -1.93 C36.34 -3.53, 36.09 -5.14, 35.83 -6.87 M36.59 -1.93 C36.29 -3.87, 35.99 -5.8, 35.83 -6.87 M35.83 -6.87 C51.18 -6.72, 66.54 -6.58, 96.19 -6.3 M35.83 -6.87 C58.43 -6.65, 81.03 -6.44, 96.19 -6.3 M96.19 -6.3 C93.53 -8.54, 90.88 -10.79, 85.67 -15.19 M96.19 -6.3 C92.47 -9.45, 88.75 -12.59, 85.67 -15.19 M85.67 -15.19 C47.66 -14.63, 9.65 -14.06, -32.59 -13.43 M85.67 -15.19 C46.85 -14.61, 8.02 -14.03, -32.59 -13.43 M-32.59 -13.43 C-26.75 -1.88, -20.91 9.66, -13.71 23.9 M-32.59 -13.43 C-27 -2.38, -21.41 8.67, -13.71 23.9 M-13.71 23.9 C-1.89 23.96, 9.93 24.02, 21.02 24.07 M-13.71 23.9 C-0.56 23.97, 12.59 24.03, 21.02 24.07 M21.02 24.07 C13.83 15.83, 6.63 7.6, 0 0 M21.02 24.07 C15.94 18.25, 10.85 12.42, 0 0 M0 0 C0 0, 0 0, 0 0 M0 0 C0 0, 0 0, 0 0" stroke="black" stroke-width="4" fill="none"></path></g></g><g stroke-linecap="round"><g transform="translate(10 87.82273580298181) rotate(0 65.15949462018216 -34.525125310620524)" fill-rule="evenodd"><path d="M0 0 L6.11 -77.55 L122.53 -77.82 L130.32 -40.84 L129.32 8.77 L118.97 -0.33 L0 0" stroke="none" stroke-width="0" fill="#0b2605" fill-rule="evenodd"></path><path d="M0 0 C2.43 -30.81, 4.86 -61.62, 6.11 -77.55 M0 0 C1.37 -17.43, 2.75 -34.86, 6.11 -77.55 M6.11 -77.55 C36.27 -77.62, 66.42 -77.69, 122.53 -77.82 M6.11 -77.55 C35.99 -77.62, 65.87 -77.69, 122.53 -77.82 M122.53 -77.82 C124.31 -69.37, 126.09 -60.91, 130.32 -40.84 M122.53 -77.82 C124.52 -68.36, 126.52 -58.9, 130.32 -40.84 M130.32 -40.84 C130.09 -29.59, 129.87 -18.33, 129.32 8.77 M130.32 -40.84 C130.05 -27.33, 129.77 -13.82, 129.32 8.77 M129.32 8.77 C125.95 5.81, 122.58 2.84, 118.97 -0.33 M129.32 8.77 C126.4 6.21, 123.49 3.64, 118.97 -0.33 M118.97 -0.33 C86.89 -0.24, 54.8 -0.15, 0 0 M118.97 -0.33 C81.67 -0.23, 44.36 -0.12, 0 0 M0 0 C0 0, 0 0, 0 0 M0 0 C0 0, 0 0, 0 0" stroke="black" stroke-width="4" fill="none"></path></g></g><g stroke-linecap="round"><g transform="translate(131.15499549443302 10.703746924571078) rotate(0 -0.9840529030016114 38.57216567435091)"><path d="M0 0 C-0.4 15.69, -0.8 31.37, -1.97 77.14 M0 0 C-0.4 15.73, -0.8 31.46, -1.97 77.14" stroke="black" stroke-width="4" fill="none"></path></g></g><g stroke-linecap="round"><g transform="translate(149.02742708809637 21.21788142307298) rotate(0 59.48400275596032 29.98056183094957)" fill-rule="evenodd"><path d="M0 0 L-1.07 61.88 L120.04 59.43 L119.35 -1.92 L0 0" stroke="none" stroke-width="0" fill="#0b2605" fill-rule="evenodd"></path><path d="M0 0 C-0.42 24.27, -0.84 48.54, -1.07 61.88 M0 0 C-0.25 14.29, -0.49 28.58, -1.07 61.88 M-1.07 61.88 C36.1 61.13, 73.27 60.38, 120.04 59.43 M-1.07 61.88 C26.91 61.31, 54.89 60.75, 120.04 59.43 M120.04 59.43 C119.8 37.76, 119.55 16.1, 119.35 -1.92 M120.04 59.43 C119.81 39.11, 119.58 18.79, 119.35 -1.92 M119.35 -1.92 C81.45 -1.31, 43.55 -0.7, 0 0 M119.35 -1.92 C78.11 -1.26, 36.86 -0.59, 0 0 M0 0 C0 0, 0 0, 0 0 M0 0 C0 0, 0 0, 0 0" stroke="black" stroke-width="4" fill="none"></path></g></g><g stroke-linecap="round"><g transform="translate(220.05853734172888 113.41127582963884) rotate(0 -11.666125822983304 -16.730033893871507)" fill-rule="evenodd"><path d="M0 0 L46.91 0.05 L48.58 -33.51 L-71.91 -31.38 L-68.89 -16.81 L-32.8 -15.76 L-33.3 -11.3 L-26.63 -10.52 L-26.61 -2.4 L-12.02 -16.58 L16.01 -15.09 L0 0" stroke="none" stroke-width="0" fill="#0b2605" fill-rule="evenodd"></path><path d="M0 0 C17.07 0.02, 34.13 0.04, 46.91 0.05 M0 0 C10.34 0.01, 20.69 0.02, 46.91 0.05 M46.91 0.05 C47.41 -10.1, 47.92 -20.25, 48.58 -33.51 M46.91 0.05 C47.5 -11.85, 48.09 -23.74, 48.58 -33.51 M48.58 -33.51 C8.41 -32.8, -31.75 -32.09, -71.91 -31.38 M48.58 -33.51 C4.93 -32.74, -38.72 -31.97, -71.91 -31.38 M-71.91 -31.38 C-70.76 -25.81, -69.6 -20.25, -68.89 -16.81 M-71.91 -31.38 C-70.83 -26.15, -69.74 -20.91, -68.89 -16.81 M-68.89 -16.81 C-55.83 -16.43, -42.78 -16.05, -32.8 -15.76 M-68.89 -16.81 C-59.12 -16.52, -49.36 -16.24, -32.8 -15.76 M-32.8 -15.76 C-32.95 -14.41, -33.1 -13.06, -33.3 -11.3 M-32.8 -15.76 C-32.93 -14.62, -33.05 -13.49, -33.3 -11.3 M-33.3 -11.3 C-30.78 -11.01, -28.26 -10.71, -26.63 -10.52 M-33.3 -11.3 C-31.8 -11.13, -30.31 -10.95, -26.63 -10.52 M-26.63 -10.52 C-26.63 -8.62, -26.62 -6.71, -26.61 -2.4 M-26.63 -10.52 C-26.63 -8.36, -26.62 -6.19, -26.61 -2.4 M-26.61 -2.4 C-23.42 -5.51, -20.23 -8.61, -12.02 -16.58 M-26.61 -2.4 C-21.24 -7.62, -15.87 -12.85, -12.02 -16.58 M-12.02 -16.58 C-3.44 -16.12, 5.15 -15.67, 16.01 -15.09 M-12.02 -16.58 C-5.42 -16.23, 1.19 -15.88, 16.01 -15.09 M16.01 -15.09 C10.75 -10.13, 5.48 -5.16, 0 0 M16.01 -15.09 C12.55 -11.83, 9.09 -8.56, 0 0 M0 0 C0 0, 0 0, 0 0 M0 0 C0 0, 0 0, 0 0" stroke="black" stroke-width="4" fill="none"></path></g></g></svg>